==========================Lose Yourself========================================

Format                           : MPEG-4
Format profile                   : Base Media / Version 2
Codec ID                         : mp42
File size                        : 79.9 MiB
Duration                         : 5mn 28s
Overall bit rate                 : 2 043 Kbps
Encoded date                     : UTC 2010-01-07 13:45:09
Tagged date                      : UTC 2010-01-07 13:45:09
gsst                             : 0
gstd                             : 328655
gssd                             : B4A7D0884HH1293720468625987
gshh                             :

Video
ID                               : 2
Format                           : AVC
Format/Info                      : Advanced Video Codec
Format profile                   : High@L3.1
Format settings, CABAC           : Yes
Format settings, ReFrames        : 3 frames
Codec ID                         : avc1
Codec ID/Info                    : Advanced Video Coding
Duration                         : 5mn 28s
Bit rate mode                    : Variable
Bit rate                         : 1 919 Kbps
Maximum bit rate                 : 3 345 Kbps
Width                            : 1 280 pixels
Height                           : 720 pixels
Display aspect ratio             : 16:9
Frame rate mode                  : Constant
Frame rate                       : 30.000 fps
Color space                      : YUV
Chroma subsampling               : 4:2:0
Bit depth                        : 8 bits
Scan type                        : Progressive
Bits/(Pixel*Frame)               : 0.069
Stream size                      : 75.1 MiB (94%)
Title                            : (C) 2007 Google Inc. v08.13.2007.
Encoded date                     : UTC 2010-01-07 13:45:10
Tagged date                      : UTC 2010-01-07 13:45:13

Audio
ID                               : 1
Format                           : AAC
Format/Info                      : Advanced Audio Codec
Format version                   : Version 4
Format profile                   : LC
Format settings, SBR             : No
Codec ID                         : 40
Duration                         : 5mn 28s
Bit rate mode                    : Variable
Bit rate                         : 121 Kbps
Maximum bit rate                 : 342 Kbps
Channel(s)                       : 2 channels
Channel positions                : Front: L R
Sampling rate                    : 44.1 KHz
Stream size                      : 4.74 MiB (6%)
Title                            : (C) 2007 Google Inc. v08.13.2007.
Encoded date                     : UTC 2010-01-07 13:45:09
Tagged date                      : UTC 2010-01-07 13:45:13

============================== SCREEN-SHOT===================================
 
                    http://bayimg.com/NaejPAaDe


============================HAUNTING SUMMER====================================
